<svg width="229" height="134" viewBox="0 0 229 134" fill="none" xmlns="http://www.w3.org/2000/svg">
<path d="M206.14 0H21.4272C20.1929 0 19.1924 0.994729 19.1924 2.22179V121.927C19.1924 123.154 20.1929 124.148 21.4272 124.148H206.14C207.375 124.148 208.375 123.154 208.375 121.927V2.22179C208.375 0.994729 207.375 0 206.14 0Z" fill="#3A3A3A"/>
<path fill-rule="evenodd" clip-rule="evenodd" d="M31.4952 114.115H196.282V11.4573H31.4952V114.115Z" fill="#616467"/>
<path fill-rule="evenodd" clip-rule="evenodd" d="M0.0438984 124.606C0.0196181 124.301 0.245836 124.054 0.559 124.054H228.379C228.688 124.054 228.89 124.299 228.821 124.592C228.821 124.592 227.377 133.563 217.897 133.563H9.83375C0.237517 133.563 0.0438984 124.606 0.0438984 124.606Z" fill="#2F2E2E"/>
<path d="M127.502 124.27H101.654V125.999H127.502V124.27Z" fill="#212121"/>
<path d="M117.247 5.83529H111.706C111.433 5.83529 111.211 6.0556 111.211 6.32736C111.211 6.59912 111.433 6.81943 111.706 6.81943H117.247C117.521 6.81943 117.742 6.59912 117.742 6.32736C117.742 6.0556 117.521 5.83529 117.247 5.83529Z" fill="#212121"/>
<path d="M113.612 84.9261C126.282 84.9261 136.552 74.6493 136.552 61.9722C136.552 49.2951 126.282 39.0183 113.612 39.0183C100.942 39.0183 90.6714 49.2951 90.6714 61.9722C90.6714 74.6493 100.942 84.9261 113.612 84.9261Z" stroke="#19E68C" stroke-width="3"/>
<path d="M107.457 62.7548C107.457 62.7548 108.049 63.4212 108.782 64.2465L110.586 66.277C110.95 66.6873 111.535 66.6894 111.904 66.2682L119.964 57.0608" stroke="#19E68C" stroke-width="3" stroke-linecap="round" stroke-linejoin="round"/>
</svg>
