<svg width="921" height="276" viewBox="0 0 921 276" fill="none" xmlns="http://www.w3.org/2000/svg">
<path d="M220.039 122.468C175.567 96.1464 102.211 93.7266 59.7564 106.568C52.937 108.63 45.7284 104.795 43.6637 97.9997C41.5977 91.201 45.4417 84.0204 52.2636 81.9553C101 67.2125 182.013 70.0596 233.211 100.348C239.345 103.977 241.354 111.869 237.72 117.97C234.082 124.082 226.156 126.097 220.038 122.468H220.039ZM218.583 161.453C215.463 166.5 208.842 168.082 203.786 164.984C166.711 142.271 110.173 135.69 66.3088 148.96C60.6213 150.672 54.6125 147.478 52.8851 141.818C52.0616 139.097 52.3542 136.162 53.6988 133.656C55.0434 131.15 57.3302 129.278 60.0578 128.45C110.166 113.294 172.459 120.634 215.044 146.715C220.1 149.819 221.691 156.419 218.583 161.453ZM201.7 198.894C201.113 199.856 200.341 200.693 199.428 201.357C198.515 202.021 197.48 202.499 196.382 202.764C195.284 203.029 194.144 203.076 193.028 202.901C191.911 202.726 190.841 202.334 189.877 201.746C157.479 182.012 116.7 177.556 68.675 188.488C67.5746 188.739 66.4354 188.771 65.3225 188.583C64.2096 188.395 63.1448 187.99 62.1888 187.392C61.2329 186.794 60.4046 186.014 59.7513 185.096C59.0979 184.179 58.6324 183.142 58.3811 182.045C58.1281 180.948 58.0947 179.812 58.2829 178.702C58.4711 177.592 58.8771 176.53 59.4777 175.577C60.0784 174.624 60.8618 173.798 61.7831 173.147C62.7045 172.496 63.7457 172.032 64.8471 171.783C117.402 159.811 162.482 164.963 198.847 187.109C199.811 187.696 200.65 188.466 201.315 189.376C201.98 190.286 202.459 191.318 202.724 192.412C202.989 193.507 203.035 194.642 202.86 195.755C202.684 196.867 202.291 197.933 201.702 198.894H201.7ZM138.426 0.571991C62.2325 0.571991 0.461548 62.1316 0.461548 138.07C0.461548 214.015 62.2325 275.572 138.427 275.572C214.625 275.572 276.395 214.015 276.395 138.07C276.395 62.1328 214.626 0.571991 138.427 0.571991H138.426ZM375.82 127.509C351.998 121.847 347.759 117.873 347.759 109.524C347.759 101.636 355.21 96.3299 366.291 96.3299C377.032 96.3299 387.682 100.36 398.849 108.659C399.188 108.91 399.61 109.01 400.028 108.945C400.234 108.914 400.431 108.842 400.608 108.733C400.785 108.624 400.938 108.48 401.057 108.311L412.688 91.9694C413.166 91.297 413.037 90.3685 412.392 89.855C399.101 79.2277 384.136 74.0606 366.643 74.0606C340.922 74.0606 322.956 89.4412 322.956 111.453C322.956 135.056 338.455 143.412 365.236 149.864C388.03 155.098 391.878 159.479 391.878 167.317C391.878 176.002 384.1 181.4 371.58 181.4C357.676 181.4 346.334 176.733 333.647 165.783C333.326 165.519 332.917 165.386 332.502 165.411C332.081 165.446 331.698 165.64 331.432 165.96L318.39 181.428C317.842 182.07 317.911 183.029 318.544 183.584C333.306 196.718 351.461 203.656 371.052 203.656C398.769 203.656 416.677 188.562 416.677 165.203C416.677 145.461 404.843 134.541 375.82 127.509V127.509ZM499.503 153.967C499.503 170.637 489.198 182.271 474.444 182.271C459.86 182.271 448.858 170.109 448.858 153.967C448.858 137.827 459.86 125.664 474.446 125.664C488.962 125.664 499.503 137.565 499.503 153.967V153.967ZM479.383 104.094C467.369 104.094 457.516 108.811 449.391 118.472V107.596C449.391 106.738 448.692 106.039 447.83 106.039H426.502C425.64 106.039 424.943 106.738 424.943 107.596V228.445C424.943 229.303 425.64 230.003 426.502 230.003H447.829C448.692 230.003 449.391 229.303 449.391 228.445V190.299C457.518 199.389 467.373 203.83 479.383 203.83C501.705 203.83 524.302 186.704 524.302 153.967C524.302 121.223 501.705 104.094 479.383 104.094V104.094ZM582.225 182.444C566.934 182.444 555.407 170.201 555.407 153.967C555.407 137.664 566.535 125.835 581.871 125.835C597.26 125.835 608.866 138.078 608.866 154.323C608.866 170.623 597.661 182.444 582.225 182.444ZM582.225 104.094C553.477 104.094 530.957 126.155 530.957 154.325C530.957 182.186 553.322 204.014 581.871 204.014C610.721 204.014 633.311 182.028 633.311 153.967C633.311 126.001 610.876 104.094 582.225 104.094V104.094ZM694.699 106.039H671.229V82.1216C671.229 81.2633 670.534 80.5638 669.672 80.5638H648.345C647.483 80.5638 646.781 81.2633 646.781 82.1216V106.039H636.525C635.666 106.039 634.971 106.738 634.971 107.596V125.865C634.971 126.723 635.666 127.423 636.525 127.423H646.781V174.695C646.781 193.798 656.321 203.486 675.137 203.486C682.788 203.486 689.137 201.911 695.119 198.531C695.604 198.26 695.907 197.738 695.907 197.182V179.785C695.907 179.519 695.839 179.258 695.71 179.026C695.581 178.794 695.394 178.598 695.167 178.458C694.941 178.319 694.682 178.239 694.416 178.227C694.15 178.215 693.885 178.271 693.647 178.389C689.538 180.449 685.566 181.4 681.126 181.4C674.283 181.4 671.229 178.304 671.229 171.364V127.423H694.701C695.563 127.423 696.256 126.723 696.256 125.865V107.596C696.256 106.738 695.563 106.039 694.701 106.039H694.699ZM776.476 106.131V103.194C776.476 94.5517 779.8 90.6985 787.257 90.6985C791.705 90.6985 795.276 91.579 799.276 92.909C799.511 92.9867 799.761 93.0077 800.005 92.9701C800.25 92.9326 800.482 92.8376 800.682 92.6929C800.883 92.5483 801.046 92.3582 801.158 92.1384C801.27 91.9186 801.328 91.6754 801.327 91.4288V73.5138C801.328 73.1804 801.222 72.8554 801.023 72.587C800.825 72.3187 800.545 72.1211 800.225 72.0238C795.999 70.7702 790.592 69.4833 782.496 69.4833C762.794 69.4833 752.382 80.5416 752.382 101.447V105.945H742.136C741.721 105.946 741.324 106.11 741.031 106.401C740.737 106.693 740.571 107.088 740.569 107.502V125.865C740.569 126.722 741.273 127.424 742.136 127.424H752.382V200.34C752.382 201.198 753.077 201.897 753.937 201.897H775.265C776.127 201.897 776.828 201.198 776.828 200.34V127.423H796.744L827.251 200.319C823.787 207.978 820.381 209.502 815.733 209.502C811.974 209.502 808.018 208.383 803.971 206.178C803.783 206.076 803.575 206.014 803.362 205.994C803.149 205.974 802.934 205.997 802.729 206.062C802.322 206.205 801.979 206.507 801.806 206.901L794.578 222.708C794.412 223.065 794.388 223.472 794.513 223.845C794.637 224.219 794.9 224.531 795.248 224.719C802.795 228.792 809.609 230.531 818.028 230.531C833.778 230.531 842.483 223.22 850.159 203.55L887.163 108.251C887.255 108.016 887.288 107.762 887.259 107.511C887.231 107.26 887.142 107.02 886.999 106.811C886.856 106.602 886.665 106.431 886.441 106.312C886.218 106.193 885.968 106.131 885.715 106.13H863.511C863.186 106.13 862.869 106.23 862.605 106.417C862.34 106.605 862.139 106.869 862.032 107.174L839.285 171.927L814.37 107.131C814.258 106.836 814.059 106.583 813.798 106.404C813.538 106.225 813.229 106.129 812.913 106.13L776.476 106.131ZM729.068 106.039H707.738C706.878 106.039 706.176 106.738 706.176 107.596V200.338C706.176 201.197 706.878 201.896 707.738 201.896H729.068C729.928 201.896 730.631 201.197 730.631 200.338V107.596C730.631 106.738 729.927 106.039 729.068 106.039ZM718.512 63.8101C710.062 63.8101 703.205 70.6273 703.205 79.0479C703.205 87.4746 710.062 94.3005 718.512 94.3005C726.959 94.3005 733.809 87.4746 733.809 79.0479C733.809 70.6273 726.959 63.8101 718.512 63.8101V63.8101ZM906.247 115.263H902.339V120.23H906.247C908.197 120.23 909.361 119.279 909.361 117.746C909.361 116.129 908.197 115.263 906.247 115.263ZM908.779 122.348L913.026 128.272H909.446L905.624 122.839H902.337V128.272H899.342V112.571H906.367C910.028 112.571 912.436 114.437 912.436 117.578C912.436 120.152 910.944 121.726 908.779 122.348V122.348ZM905.451 107.344C897.763 107.344 891.945 113.436 891.945 120.895C891.945 128.35 897.721 134.36 905.373 134.36C913.059 134.36 918.885 128.272 918.885 120.81C918.885 113.353 913.102 107.344 905.451 107.344ZM905.373 135.857C896.932 135.857 890.363 129.1 890.363 120.895C890.363 112.691 897.017 105.856 905.45 105.856C913.893 105.856 920.462 112.612 920.462 120.81C920.462 129.016 913.811 135.857 905.373 135.857" fill="#fff"/>
</svg>
